<?xml version="1.0" encoding="UTF-8" standalone="no"?>
<!DOCTYPE svg PUBLIC "-//W3C//DTD SVG 1.1//EN"
 "http://www.w3.org/Graphics/SVG/1.1/DTD/svg11.dtd">
<!-- Generated by graphviz version 7.0.0 (20221023.0053)
 -->
<!-- Title: compas Pages: 1 -->
<svg width="744pt" height="481pt"
 viewBox="0.00 0.00 743.50 481.00" xmlns="http://www.w3.org/2000/svg" xmlns:xlink="http://www.w3.org/1999/xlink">
<g id="graph0" class="graph" transform="scale(1 1) rotate(0) translate(4 477)">
<title>compas</title>
<polygon fill="white" stroke="none" points="-4,4 -4,-477 739.5,-477 739.5,4 -4,4"/>
<text text-anchor="middle" x="367.75" y="-22.8" font-family="Times,serif" font-size="14.00">Entity Relation Diagram generated by Compas.</text>
<text text-anchor="middle" x="367.75" y="-7.8" font-family="Times,serif" font-size="14.00">Hash: 5bf52a3a</text>
<!-- file -->
<g id="node1" class="node">
<title>file</title>
<polygon fill="#b2dfee" stroke="none" points="0,-428 0,-452 154,-452 154,-428 0,-428"/>
<polygon fill="none" stroke="black" points="0,-428 0,-452 154,-452 154,-428 0,-428"/>
<text text-anchor="start" x="62.5" y="-436.2" font-family="Times,serif" font-weight="bold" font-size="16.00"> file </text>
<polygon fill="#b3b3b3" stroke="none" points="0,-407 0,-428 98,-428 98,-407 0,-407"/>
<polygon fill="none" stroke="black" points="0,-407 0,-428 98,-428 98,-407 0,-407"/>
<text text-anchor="start" x="3" y="-413.8" font-family="Times,serif" font-weight="bold" font-size="14.00"> id </text>
<polygon fill="none" stroke="black" points="98,-407 98,-428 154,-428 154,-407 98,-407"/>
<text text-anchor="start" x="101" y="-413.8" font-family="Times,serif" font-size="14.00" fill="#535353"> uuid </text>
<polygon fill="#ebebeb" stroke="none" points="0,-386 0,-407 98,-407 98,-386 0,-386"/>
<polygon fill="none" stroke="black" points="0,-386 0,-407 98,-407 98,-386 0,-386"/>
<text text-anchor="start" x="3" y="-392.8" font-family="Times,serif" font-weight="bold" font-size="14.00"> contentLength </text>
<polygon fill="none" stroke="black" points="98,-386 98,-407 154,-407 154,-386 98,-386"/>
<text text-anchor="start" x="101" y="-392.8" font-family="Times,serif" font-size="14.00" fill="#535353"> number </text>
<polygon fill="#ebebeb" stroke="none" points="0,-365 0,-386 98,-386 98,-365 0,-365"/>
<polygon fill="none" stroke="black" points="0,-365 0,-386 98,-386 98,-365 0,-365"/>
<text text-anchor="start" x="3" y="-371.8" font-family="Times,serif" font-weight="bold" font-size="14.00"> bucketName </text>
<polygon fill="none" stroke="black" points="98,-365 98,-386 154,-386 154,-365 98,-365"/>
<text text-anchor="start" x="101" y="-371.8" font-family="Times,serif" font-size="14.00" fill="#535353"> string </text>
<polygon fill="#ebebeb" stroke="none" points="0,-344 0,-365 98,-365 98,-344 0,-344"/>
<polygon fill="none" stroke="black" points="0,-344 0,-365 98,-365 98,-344 0,-344"/>
<text text-anchor="start" x="3" y="-350.8" font-family="Times,serif" font-weight="bold" font-size="14.00"> contentType </text>
<polygon fill="none" stroke="black" points="98,-344 98,-365 154,-365 154,-344 98,-344"/>
<text text-anchor="start" x="101" y="-350.8" font-family="Times,serif" font-size="14.00" fill="#535353"> string </text>
<polygon fill="#ebebeb" stroke="none" points="0,-323 0,-344 98,-344 98,-323 0,-323"/>
<polygon fill="none" stroke="black" points="0,-323 0,-344 98,-344 98,-323 0,-323"/>
<text text-anchor="start" x="3" y="-329.8" font-family="Times,serif" font-weight="bold" font-size="14.00"> name </text>
<polygon fill="none" stroke="black" points="98,-323 98,-344 154,-344 154,-323 98,-323"/>
<text text-anchor="start" x="101" y="-329.8" font-family="Times,serif" font-size="14.00" fill="#535353"> string </text>
<polygon fill="#ebebeb" stroke="none" points="0,-302 0,-323 98,-323 98,-302 0,-302"/>
<polygon fill="none" stroke="black" points="0,-302 0,-323 98,-323 98,-302 0,-302"/>
<text text-anchor="start" x="3" y="-308.8" font-family="Times,serif" font-weight="bold" font-size="14.00"> meta </text>
<polygon fill="none" stroke="black" points="98,-302 98,-323 154,-323 154,-302 98,-302"/>
<text text-anchor="start" x="101" y="-308.8" font-family="Times,serif" font-size="14.00" fill="#535353"> object </text>
<polygon fill="#f5f5f5" stroke="none" points="0,-281 0,-302 98,-302 98,-281 0,-281"/>
<polygon fill="none" stroke="black" points="0,-281 0,-302 98,-302 98,-281 0,-281"/>
<text text-anchor="start" x="3" y="-287.8" font-family="Times,serif" font-weight="bold" font-size="14.00"> createdAt </text>
<polygon fill="none" stroke="black" points="98,-281 98,-302 154,-302 154,-281 98,-281"/>
<text text-anchor="start" x="101" y="-287.8" font-family="Times,serif" font-size="14.00" fill="#535353"> date </text>
<polygon fill="#f5f5f5" stroke="none" points="0,-260 0,-281 98,-281 98,-260 0,-260"/>
<polygon fill="none" stroke="black" points="0,-260 0,-281 98,-281 98,-260 0,-260"/>
<text text-anchor="start" x="3" y="-266.8" font-family="Times,serif" font-weight="bold" font-size="14.00"> updatedAt </text>
<polygon fill="none" stroke="black" points="98,-260 98,-281 154,-281 154,-260 98,-260"/>
<text text-anchor="start" x="101" y="-266.8" font-family="Times,serif" font-size="14.00" fill="#535353"> date </text>
</g>
<!-- job -->
<g id="node2" class="node">
<title>job</title>
<polygon fill="#b2dfee" stroke="none" points="205,-449 205,-473 376,-473 376,-449 205,-449"/>
<polygon fill="none" stroke="black" points="205,-449 205,-473 376,-473 376,-449 205,-449"/>
<text text-anchor="start" x="275" y="-457.2" font-family="Times,serif" font-weight="bold" font-size="16.00"> job </text>
<polygon fill="#b3b3b3" stroke="none" points="205,-428 205,-449 314,-449 314,-428 205,-428"/>
<polygon fill="none" stroke="black" points="205,-428 205,-449 314,-449 314,-428 205,-428"/>
<text text-anchor="start" x="208" y="-434.8" font-family="Times,serif" font-weight="bold" font-size="14.00"> id </text>
<polygon fill="none" stroke="black" points="314,-428 314,-449 376,-449 376,-428 314,-428"/>
<text text-anchor="start" x="317" y="-434.8" font-family="Times,serif" font-size="14.00" fill="#535353"> number </text>
<polygon fill="#ebebeb" stroke="none" points="205,-407 205,-428 314,-428 314,-407 205,-407"/>
<polygon fill="none" stroke="black" points="205,-407 205,-428 314,-428 314,-407 205,-407"/>
<text text-anchor="start" x="208" y="-413.8" font-family="Times,serif" font-weight="bold" font-size="14.00"> isComplete </text>
<polygon fill="none" stroke="black" points="314,-407 314,-428 376,-428 376,-407 314,-407"/>
<text text-anchor="start" x="317" y="-413.8" font-family="Times,serif" font-size="14.00" fill="#535353"> boolean </text>
<polygon fill="#ebebeb" stroke="none" points="205,-386 205,-407 314,-407 314,-386 205,-386"/>
<polygon fill="none" stroke="black" points="205,-386 205,-407 314,-407 314,-386 205,-386"/>
<text text-anchor="start" x="208" y="-392.8" font-family="Times,serif" font-weight="bold" font-size="14.00"> handlerTimeout </text>
<polygon fill="none" stroke="black" points="314,-386 314,-407 376,-407 376,-386 314,-386"/>
<text text-anchor="start" x="317" y="-392.8" font-family="Times,serif" font-size="14.00" fill="#535353"> ?number </text>
<polygon fill="#ebebeb" stroke="none" points="205,-365 205,-386 314,-386 314,-365 205,-365"/>
<polygon fill="none" stroke="black" points="205,-365 205,-386 314,-386 314,-365 205,-365"/>
<text text-anchor="start" x="208" y="-371.8" font-family="Times,serif" font-weight="bold" font-size="14.00"> priority </text>
<polygon fill="none" stroke="black" points="314,-365 314,-386 376,-386 376,-365 314,-365"/>
<text text-anchor="start" x="317" y="-371.8" font-family="Times,serif" font-size="14.00" fill="#535353"> number </text>
<polygon fill="#ebebeb" stroke="none" points="205,-344 205,-365 314,-365 314,-344 205,-344"/>
<polygon fill="none" stroke="black" points="205,-344 205,-365 314,-365 314,-344 205,-344"/>
<text text-anchor="start" x="208" y="-350.8" font-family="Times,serif" font-weight="bold" font-size="14.00"> retryCount </text>
<polygon fill="none" stroke="black" points="314,-344 314,-365 376,-365 376,-344 314,-344"/>
<text text-anchor="start" x="317" y="-350.8" font-family="Times,serif" font-size="14.00" fill="#535353"> number </text>
<polygon fill="#ebebeb" stroke="none" points="205,-323 205,-344 314,-344 314,-323 205,-323"/>
<polygon fill="none" stroke="black" points="205,-323 205,-344 314,-344 314,-323 205,-323"/>
<text text-anchor="start" x="208" y="-329.8" font-family="Times,serif" font-weight="bold" font-size="14.00"> name </text>
<polygon fill="none" stroke="black" points="314,-323 314,-344 376,-344 376,-323 314,-323"/>
<text text-anchor="start" x="317" y="-329.8" font-family="Times,serif" font-size="14.00" fill="#535353"> string </text>
<polygon fill="#ebebeb" stroke="none" points="205,-302 205,-323 314,-323 314,-302 205,-302"/>
<polygon fill="none" stroke="black" points="205,-302 205,-323 314,-323 314,-302 205,-302"/>
<text text-anchor="start" x="208" y="-308.8" font-family="Times,serif" font-weight="bold" font-size="14.00"> scheduledAt </text>
<polygon fill="none" stroke="black" points="314,-302 314,-323 376,-323 376,-302 314,-302"/>
<text text-anchor="start" x="317" y="-308.8" font-family="Times,serif" font-size="14.00" fill="#535353"> date </text>
<polygon fill="#ebebeb" stroke="none" points="205,-281 205,-302 314,-302 314,-281 205,-281"/>
<polygon fill="none" stroke="black" points="205,-281 205,-302 314,-302 314,-281 205,-281"/>
<text text-anchor="start" x="208" y="-287.8" font-family="Times,serif" font-weight="bold" font-size="14.00"> data </text>
<polygon fill="none" stroke="black" points="314,-281 314,-302 376,-302 376,-281 314,-281"/>
<text text-anchor="start" x="317" y="-287.8" font-family="Times,serif" font-size="14.00" fill="#535353"> any </text>
<polygon fill="#f5f5f5" stroke="none" points="205,-260 205,-281 314,-281 314,-260 205,-260"/>
<polygon fill="none" stroke="black" points="205,-260 205,-281 314,-281 314,-260 205,-260"/>
<text text-anchor="start" x="208" y="-266.8" font-family="Times,serif" font-weight="bold" font-size="14.00"> createdAt </text>
<polygon fill="none" stroke="black" points="314,-260 314,-281 376,-281 376,-260 314,-260"/>
<text text-anchor="start" x="317" y="-266.8" font-family="Times,serif" font-size="14.00" fill="#535353"> date </text>
<polygon fill="#f5f5f5" stroke="none" points="205,-239 205,-260 314,-260 314,-239 205,-239"/>
<polygon fill="none" stroke="black" points="205,-239 205,-260 314,-260 314,-239 205,-239"/>
<text text-anchor="start" x="208" y="-245.8" font-family="Times,serif" font-weight="bold" font-size="14.00"> updatedAt </text>
<polygon fill="none" stroke="black" points="314,-239 314,-260 376,-260 376,-239 314,-239"/>
<text text-anchor="start" x="317" y="-245.8" font-family="Times,serif" font-size="14.00" fill="#535353"> date </text>
</g>
<!-- sessionStore -->
<g id="node3" class="node">
<title>sessionStore</title>
<polygon fill="#b2dfee" stroke="none" points="504,-164 504,-188 625,-188 625,-164 504,-164"/>
<polygon fill="none" stroke="black" points="504,-164 504,-188 625,-188 625,-164 504,-164"/>
<text text-anchor="start" x="519" y="-172.2" font-family="Times,serif" font-weight="bold" font-size="16.00"> sessionStore </text>
<polygon fill="#b3b3b3" stroke="none" points="504,-143 504,-164 580,-164 580,-143 504,-143"/>
<polygon fill="none" stroke="black" points="504,-143 504,-164 580,-164 580,-143 504,-143"/>
<text text-anchor="start" x="507" y="-149.8" font-family="Times,serif" font-weight="bold" font-size="14.00"> id </text>
<polygon fill="none" stroke="black" points="580,-143 580,-164 625,-164 625,-143 580,-143"/>
<text text-anchor="start" x="583" y="-149.8" font-family="Times,serif" font-size="14.00" fill="#535353"> uuid </text>
<polygon fill="#ebebeb" stroke="none" points="504,-122 504,-143 580,-143 580,-122 504,-122"/>
<polygon fill="none" stroke="black" points="504,-122 504,-143 580,-143 580,-122 504,-122"/>
<text text-anchor="start" x="507" y="-128.8" font-family="Times,serif" font-weight="bold" font-size="14.00"> checksum </text>
<polygon fill="none" stroke="black" points="580,-122 580,-143 625,-143 625,-122 580,-122"/>
<text text-anchor="start" x="583" y="-128.8" font-family="Times,serif" font-size="14.00" fill="#535353"> string </text>
<polygon fill="#ebebeb" stroke="none" points="504,-101 504,-122 580,-122 580,-101 504,-101"/>
<polygon fill="none" stroke="black" points="504,-101 504,-122 580,-122 580,-101 504,-101"/>
<text text-anchor="start" x="507" y="-107.8" font-family="Times,serif" font-weight="bold" font-size="14.00"> revokedAt </text>
<polygon fill="none" stroke="black" points="580,-101 580,-122 625,-122 625,-101 580,-101"/>
<text text-anchor="start" x="583" y="-107.8" font-family="Times,serif" font-size="14.00" fill="#535353"> ?date </text>
<polygon fill="#ebebeb" stroke="none" points="504,-80 504,-101 580,-101 580,-80 504,-80"/>
<polygon fill="none" stroke="black" points="504,-80 504,-101 580,-101 580,-80 504,-80"/>
<text text-anchor="start" x="507" y="-86.8" font-family="Times,serif" font-weight="bold" font-size="14.00"> data </text>
<polygon fill="none" stroke="black" points="580,-80 580,-101 625,-101 625,-80 580,-80"/>
<text text-anchor="start" x="583" y="-86.8" font-family="Times,serif" font-size="14.00" fill="#535353"> any </text>
<polygon fill="#f5f5f5" stroke="none" points="504,-59 504,-80 580,-80 580,-59 504,-59"/>
<polygon fill="none" stroke="black" points="504,-59 504,-80 580,-80 580,-59 504,-59"/>
<text text-anchor="start" x="507" y="-65.8" font-family="Times,serif" font-weight="bold" font-size="14.00"> createdAt </text>
<polygon fill="none" stroke="black" points="580,-59 580,-80 625,-80 625,-59 580,-59"/>
<text text-anchor="start" x="583" y="-65.8" font-family="Times,serif" font-size="14.00" fill="#535353"> date </text>
<polygon fill="#f5f5f5" stroke="none" points="504,-38 504,-59 580,-59 580,-38 504,-38"/>
<polygon fill="none" stroke="black" points="504,-38 504,-59 580,-59 580,-38 504,-38"/>
<text text-anchor="start" x="507" y="-44.8" font-family="Times,serif" font-weight="bold" font-size="14.00"> updatedAt </text>
<polygon fill="none" stroke="black" points="580,-38 580,-59 625,-59 625,-38 580,-38"/>
<text text-anchor="start" x="583" y="-44.8" font-family="Times,serif" font-size="14.00" fill="#535353"> date </text>
</g>
<!-- sessionStoreToken -->
<g id="node4" class="node">
<title>sessionStoreToken</title>
<polygon fill="#b2dfee" stroke="none" points="426,-407 426,-431 565,-431 565,-407 426,-407"/>
<polygon fill="none" stroke="black" points="426,-407 426,-431 565,-431 565,-407 426,-407"/>
<text text-anchor="start" x="429" y="-415.2" font-family="Times,serif" font-weight="bold" font-size="16.00"> sessionStoreToken </text>
<polygon fill="#b3b3b3" stroke="none" points="426,-386 426,-407 519,-407 519,-386 426,-386"/>
<polygon fill="none" stroke="black" points="426,-386 426,-407 519,-407 519,-386 426,-386"/>
<text text-anchor="start" x="429" y="-392.8" font-family="Times,serif" font-weight="bold" font-size="14.00"> id </text>
<polygon fill="none" stroke="black" points="519,-386 519,-407 565,-407 565,-386 519,-386"/>
<text text-anchor="start" x="522" y="-392.8" font-family="Times,serif" font-size="14.00" fill="#535353"> uuid </text>
<polygon fill="#ebebeb" stroke="none" points="426,-365 426,-386 519,-386 519,-365 426,-365"/>
<polygon fill="none" stroke="black" points="426,-365 426,-386 519,-386 519,-365 426,-365"/>
<text text-anchor="start" x="429" y="-371.8" font-family="Times,serif" font-weight="bold" font-size="14.00"> session </text>
<polygon fill="none" stroke="black" points="519,-365 519,-386 565,-386 565,-365 519,-365"/>
<text text-anchor="start" x="522" y="-371.8" font-family="Times,serif" font-size="14.00" fill="#535353"> uuid </text>
<polygon fill="#ebebeb" stroke="none" points="426,-344 426,-365 519,-365 519,-344 426,-344"/>
<polygon fill="none" stroke="black" points="426,-344 426,-365 519,-365 519,-344 426,-344"/>
<text text-anchor="start" x="429" y="-350.8" font-family="Times,serif" font-weight="bold" font-size="14.00"> expiresAt </text>
<polygon fill="none" stroke="black" points="519,-344 519,-365 565,-365 565,-344 519,-344"/>
<text text-anchor="start" x="522" y="-350.8" font-family="Times,serif" font-size="14.00" fill="#535353"> date </text>
<polygon fill="#ebebeb" stroke="none" points="426,-323 426,-344 519,-344 519,-323 426,-323"/>
<polygon fill="none" stroke="black" points="426,-323 426,-344 519,-344 519,-323 426,-323"/>
<text text-anchor="start" x="429" y="-329.8" font-family="Times,serif" font-weight="bold" font-size="14.00"> refreshToken </text>
<polygon fill="none" stroke="black" points="519,-323 519,-344 565,-344 565,-323 519,-323"/>
<text text-anchor="start" x="522" y="-329.8" font-family="Times,serif" font-size="14.00" fill="#535353"> ?uuid </text>
<polygon fill="#ebebeb" stroke="none" points="426,-302 426,-323 519,-323 519,-302 426,-302"/>
<polygon fill="none" stroke="black" points="426,-302 426,-323 519,-323 519,-302 426,-302"/>
<text text-anchor="start" x="429" y="-308.8" font-family="Times,serif" font-weight="bold" font-size="14.00"> revokedAt </text>
<polygon fill="none" stroke="black" points="519,-302 519,-323 565,-323 565,-302 519,-302"/>
<text text-anchor="start" x="522" y="-308.8" font-family="Times,serif" font-size="14.00" fill="#535353"> ?date </text>
<polygon fill="#f5f5f5" stroke="none" points="426,-281 426,-302 519,-302 519,-281 426,-281"/>
<polygon fill="none" stroke="black" points="426,-281 426,-302 519,-302 519,-281 426,-281"/>
<text text-anchor="start" x="429" y="-287.8" font-family="Times,serif" font-weight="bold" font-size="14.00"> createdAt </text>
<polygon fill="none" stroke="black" points="519,-281 519,-302 565,-302 565,-281 519,-281"/>
<text text-anchor="start" x="522" y="-287.8" font-family="Times,serif" font-size="14.00" fill="#535353"> date </text>
</g>
<!-- sessionStoreToken&#45;&gt;sessionStore -->
<g id="edge1" class="edge">
<title>sessionStoreToken:1_right&#45;&gt;sessionStore:0</title>
<path fill="none" stroke="black" d="M566,-376C608.22,-376 577.3,-321.39 565,-281 548.06,-225.37 455.51,-163.89 491.71,-155.08"/>
<polygon fill="black" stroke="black" points="491.87,-158.58 501.49,-154.14 491.21,-151.61 491.87,-158.58"/>
<text text-anchor="middle" x="539.5" y="-209.8" font-family="Times,serif" font-size="14.00">N &#45; 1</text>
</g>
<!-- sessionStoreToken&#45;&gt;sessionStoreToken -->
<g id="edge2" class="edge">
<title>sessionStoreToken:3&#45;&gt;sessionStoreToken:0</title>
<path fill="none" stroke="black" d="M459.42,-323.28C421.24,-298.07 375.5,-304.24 375.5,-365 375.5,-420.77 414.04,-430.55 449.9,-412.28"/>
<polygon fill="black" stroke="black" points="451.24,-415.55 458.11,-407.48 447.71,-409.5 451.24,-415.55"/>
<text text-anchor="middle" x="362.5" y="-352.3" font-family="Times,serif" font-size="14.00">1 &#45; 1</text>
</g>
<!-- post -->
<g id="node5" class="node">
<title>post</title>
<polygon fill="#b2dfee" stroke="none" points="615,-396 615,-420 736,-420 736,-396 615,-396"/>
<polygon fill="none" stroke="black" points="615,-396 615,-420 736,-420 736,-396 615,-396"/>
<text text-anchor="start" x="657" y="-404.2" font-family="Times,serif" font-weight="bold" font-size="16.00"> post </text>
<polygon fill="#b3b3b3" stroke="none" points="615,-375 615,-396 691,-396 691,-375 615,-375"/>
<polygon fill="none" stroke="black" points="615,-375 615,-396 691,-396 691,-375 615,-375"/>
<text text-anchor="start" x="618" y="-381.8" font-family="Times,serif" font-weight="bold" font-size="14.00"> id </text>
<polygon fill="none" stroke="black" points="691,-375 691,-396 736,-396 736,-375 691,-375"/>
<text text-anchor="start" x="694" y="-381.8" font-family="Times,serif" font-size="14.00" fill="#535353"> uuid </text>
<polygon fill="#ebebeb" stroke="none" points="615,-354 615,-375 691,-375 691,-354 615,-354"/>
<polygon fill="none" stroke="black" points="615,-354 615,-375 691,-375 691,-354 615,-354"/>
<text text-anchor="start" x="618" y="-360.8" font-family="Times,serif" font-weight="bold" font-size="14.00"> text </text>
<polygon fill="none" stroke="black" points="691,-354 691,-375 736,-375 736,-354 691,-354"/>
<text text-anchor="start" x="694" y="-360.8" font-family="Times,serif" font-size="14.00" fill="#535353"> string </text>
<polygon fill="#ebebeb" stroke="none" points="615,-333 615,-354 691,-354 691,-333 615,-333"/>
<polygon fill="none" stroke="black" points="615,-333 615,-354 691,-354 691,-333 615,-333"/>
<text text-anchor="start" x="618" y="-339.8" font-family="Times,serif" font-weight="bold" font-size="14.00"> title </text>
<polygon fill="none" stroke="black" points="691,-333 691,-354 736,-354 736,-333 691,-333"/>
<text text-anchor="start" x="694" y="-339.8" font-family="Times,serif" font-size="14.00" fill="#535353"> string </text>
<polygon fill="#f5f5f5" stroke="none" points="615,-312 615,-333 691,-333 691,-312 615,-312"/>
<polygon fill="none" stroke="black" points="615,-312 615,-333 691,-333 691,-312 615,-312"/>
<text text-anchor="start" x="618" y="-318.8" font-family="Times,serif" font-weight="bold" font-size="14.00"> createdAt </text>
<polygon fill="none" stroke="black" points="691,-312 691,-333 736,-333 736,-312 691,-312"/>
<text text-anchor="start" x="694" y="-318.8" font-family="Times,serif" font-size="14.00" fill="#535353"> date </text>
<polygon fill="#f5f5f5" stroke="none" points="615,-291 615,-312 691,-312 691,-291 615,-291"/>
<polygon fill="none" stroke="black" points="615,-291 615,-312 691,-312 691,-291 615,-291"/>
<text text-anchor="start" x="618" y="-297.8" font-family="Times,serif" font-weight="bold" font-size="14.00"> updatedAt </text>
<polygon fill="none" stroke="black" points="691,-291 691,-312 736,-312 736,-291 691,-291"/>
<text text-anchor="start" x="694" y="-297.8" font-family="Times,serif" font-size="14.00" fill="#535353"> date </text>
</g>
</g>
</svg>
