<?xml version="1.0" encoding="UTF-8"?>
<svg id="b" data-name="Layer 2" xmlns="http://www.w3.org/2000/svg" viewBox="0 0 343.68 117.28">
  <defs>
    <style>
      .d {
        fill: #fff;
      }

      .e {
        fill: #0b5351;
      }

      .f {
        fill: #3eaf7c;
      }
    </style>
  </defs>
  <g id="c" data-name="Layer 1">
    <rect class="d" width="343.68" height="117.28" rx="3" ry="3"/>
    <g>
      <g>
        <path class="e" d="M73.91,58.64c0,.14,.02,.28,.02,.43,0,4.22-3.42,7.64-7.64,7.64s-7.64-3.42-7.64-7.64c0-.14,.01-.28,.02-.43h-10.57l18.19,38.57,18.19-38.57h-10.57Z"/>
        <path class="f" d="M66.29,51.43c4.08,0,7.4,3.19,7.62,7.22h10.57l-18.19-38.57-18.19,38.57h10.57c.22-4.02,3.54-7.22,7.62-7.22Z"/>
        <g>
          <path class="e" d="M75.18,31.23l4.62,9.79c5.31,4.13,8.72,10.57,8.72,17.81s-3.54,13.93-9.02,18.05l-4.54,9.63c11.66-3.8,20.12-14.77,20.12-27.68s-8.35-23.74-19.89-27.6Z"/>
          <path class="e" d="M53.42,77.59c-6.04-4.05-10.01-10.93-10.01-18.75s3.85-14.48,9.73-18.56l4.39-9.3c-11.95,3.63-20.67,14.74-20.67,27.86s8.83,24.36,20.89,27.92l-4.33-9.17Z"/>
        </g>
      </g>
      <g>
        <path class="e" d="M121.71,69.79c-1.13,.7-3.72,1.78-7.27,1.78-7.86,0-12.49-5.01-12.49-13.46s4.63-13.46,12.49-13.46c3.55,0,6.14,1.02,7.27,1.78,1.02,.7,1.35,1.24,1.35,2.1v2.37c0,.81-.27,1.29-.92,1.29-.38,0-.7-.16-1.24-.43-1.24-.65-3.34-1.45-5.65-1.45-3.93,0-6.62,2.32-6.62,7.81s2.69,7.81,6.62,7.81c2.32,0,4.42-.81,5.65-1.45,.54-.27,.86-.43,1.24-.43,.65,0,.92,.48,.92,1.29v2.37c0,.86-.32,1.45-1.35,2.1Z"/>
        <path class="e" d="M137.55,71.57c-7.54,0-12.6-4.85-12.6-13.46s5.06-13.46,12.6-13.46,12.55,4.85,12.55,13.46-5.06,13.46-12.55,13.46Zm0-21.27c-3.61,0-5.92,2.32-5.92,7.81s2.32,7.81,5.92,7.81,5.87-2.32,5.87-7.81-2.32-7.81-5.87-7.81Z"/>
        <path class="e" d="M168.08,44.86c3.12,0,5.28,1.4,6.19,3.39,1.45-1.45,5.01-3.39,8.83-3.39,4.79,0,7.16,2.91,7.16,8.35v16.8c0,.59-.43,1.02-1.02,1.02h-4.63c-.59,0-1.02-.43-1.02-1.02v-15.83c0-2.32-1.18-3.29-3.07-3.29-2.32,0-5.28,1.29-5.28,1.29v17.82c0,.59-.43,1.02-1.02,1.02h-4.63c-.59,0-1.02-.43-1.02-1.02v-15.83c0-2.32-1.18-3.29-3.12-3.29-2.26,0-5.22,1.29-5.22,1.29v17.82c0,.59-.43,1.02-1.02,1.02h-4.63c-.59,0-1.02-.43-1.02-1.02v-23.8c0-.59,.43-1.02,1.02-1.02h2.64c1.83,0,2.96,1.29,2.96,2.69,1.35-1.02,4.09-3.02,7.92-3.02Z"/>
        <path class="e" d="M207.85,44.8c6.35,0,10.61,4.58,10.61,13.3s-4.25,13.3-10.61,13.3c-3.77,0-5.98-1.72-7.05-3.18v13.41c0,.59-.43,1.02-1.02,1.02h-4.63c-.59,0-1.02-.43-1.02-1.02V46.2c0-.59,.43-1.02,1.02-1.02h2.64c1.83,0,2.96,1.24,2.96,2.75,1.18-1.56,3.34-3.12,7.11-3.12Zm-1.56,5.49c-2.64,0-4.52,1.51-5.49,2.96v9.69c.97,1.45,2.85,2.96,5.49,2.96,3.39,0,5.49-2.1,5.49-7.81s-2.1-7.81-5.49-7.81Z"/>
        <path class="e" d="M228.9,71.35c-4.47,0-8.35-2.1-8.35-7.97,0-4.79,3.55-8.35,10.39-8.35,1.67,0,3.45,.22,4.79,.48v-.48c0-3.55-.27-5.22-3.82-5.22-2.91,0-5.01,.7-7.16,1.62-.59,.27-1.24,.48-1.67,.48-.59,0-.92-.38-.92-1.13v-2.37c0-.97,.48-1.56,1.72-2.15,2.1-1.02,6.08-1.62,9.1-1.62,7.22,0,9.26,3.12,9.26,9.05v12.39c0,1.24,.38,1.72,1.18,1.72v.65c0,1.35-.75,2.91-3.88,2.91-2.15,0-3.45-.86-3.82-2.64-1.24,1.35-3.18,2.64-6.84,2.64Zm6.84-12.33c-1.08-.27-2.32-.43-3.39-.43-3.66,0-5.28,1.56-5.28,4.42,0,3.12,1.72,4.04,4.2,4.04,1.94,0,3.61-.97,4.47-1.94v-6.08Z"/>
        <path class="e" d="M254.32,71.57c-3.93,0-6.57-1.18-7.81-1.94-1.02-.59-1.35-1.18-1.35-2.05v-2.69c0-.81,.32-1.18,.92-1.18,.38,0,.7,.11,1.18,.38,1.29,.7,3.61,2.05,6.25,2.05,1.88,0,3.77-.43,3.77-2.64,0-1.94-1.24-2.75-3.93-3.28-3.98-.81-7.81-2.58-7.81-7.59s4.31-7.97,8.99-7.97c3.61,0,5.92,1.08,7.11,1.78,1.02,.65,1.4,1.18,1.4,2.05v2.58c0,.81-.32,1.18-.97,1.18-.38,0-.7-.11-1.13-.38-1.24-.75-2.69-2.05-5.6-2.05-1.88,0-3.34,.59-3.34,2.53,0,1.56,1.24,2.42,3.61,2.91,4.74,.97,8.24,2.75,8.24,7.97,0,5.65-4.52,8.35-9.53,8.35Z"/>
        <path class="e" d="M270.31,71.4c-2.05,0-3.72-1.67-3.72-3.72s1.67-3.66,3.72-3.66,3.66,1.62,3.66,3.66-1.62,3.72-3.66,3.72Z"/>
        <path class="e" d="M277.64,82.98c-2.69,0-4.47-.92-4.47-2.1v-2.64c0-.54,.27-.86,.81-.86,.22,0,.43,.11,.7,.22,.54,.22,.86,.43,1.67,.43,1.13,0,1.83-.54,1.83-2.85v-28.97c0-.59,.43-1.02,1.02-1.02h4.63c.59,0,1.02,.43,1.02,1.02v28.65c0,5.55-2.64,8.13-7.22,8.13Zm.43-45.23c0-1.88,1.56-3.45,3.45-3.45s3.45,1.56,3.45,3.45-1.56,3.45-3.45,3.45-3.45-1.56-3.45-3.45Z"/>
        <path class="e" d="M297.29,71.57c-3.93,0-6.57-1.18-7.81-1.94-1.02-.59-1.35-1.18-1.35-2.05v-2.69c0-.81,.32-1.18,.92-1.18,.38,0,.7,.11,1.18,.38,1.29,.7,3.61,2.05,6.25,2.05,1.88,0,3.77-.43,3.77-2.64,0-1.94-1.24-2.75-3.93-3.28-3.98-.81-7.81-2.58-7.81-7.59s4.31-7.97,8.99-7.97c3.61,0,5.92,1.08,7.11,1.78,1.02,.65,1.4,1.18,1.4,2.05v2.58c0,.81-.32,1.18-.97,1.18-.38,0-.7-.11-1.13-.38-1.24-.75-2.69-2.05-5.6-2.05-1.88,0-3.34,.59-3.34,2.53,0,1.56,1.24,2.42,3.61,2.91,4.74,.97,8.24,2.75,8.24,7.97,0,5.65-4.52,8.35-9.53,8.35Z"/>
      </g>
    </g>
  </g>
</svg>