<?xml version="1.0" encoding="UTF-8"?>
<svg id="Layer_1" data-name="Layer 1" xmlns="http://www.w3.org/2000/svg" viewBox="0 0 1024 512">
  <defs>
    <style>
      .cls-1 {
        fill: #fff;
      }

      .cls-2 {
        fill: #0b5351;
      }

      .cls-3 {
        fill: #3eaf7c;
      }
    </style>
  </defs>
  <rect class="cls-1" width="1024" height="512"/>
  <g>
    <g>
      <path class="cls-2" d="M242.87,256c.02,.39,.06,.77,.06,1.17,0,11.6-9.4,21-21,21s-21-9.4-21-21c0-.39,.04-.78,.06-1.17h-29.06l50,106,50-106h-29.06Z"/>
      <path class="cls-3" d="M221.93,236.17c11.2,0,20.33,8.78,20.94,19.83h29.06l-50-106-50,106h29.06c.61-11.05,9.74-19.83,20.94-19.83Z"/>
      <g>
        <path class="cls-2" d="M246.35,180.68l12.69,26.91c14.59,11.34,23.98,29.05,23.98,48.96s-9.74,38.29-24.8,49.6l-12.49,26.48c32.05-10.44,55.28-40.59,55.28-76.07s-22.94-65.25-54.67-75.87Z"/>
        <path class="cls-2" d="M186.54,308.07c-16.59-11.13-27.52-30.05-27.52-51.53s10.59-39.81,26.75-51l12.06-25.56c-32.84,9.97-56.81,40.51-56.81,76.56s24.26,66.95,57.4,76.73l-11.89-25.2Z"/>
      </g>
    </g>
    <g>
      <path class="cls-2" d="M374.24,286.64c-3.11,1.92-10.21,4.88-19.98,4.88-21.61,0-34.33-13.76-34.33-37s12.73-37,34.33-37c9.77,0,16.87,2.81,19.98,4.88,2.81,1.92,3.7,3.4,3.7,5.77v6.51c0,2.22-.74,3.55-2.52,3.55-1.04,0-1.92-.44-3.4-1.18-3.4-1.78-9.18-4-15.54-4-10.8,0-18.2,6.36-18.2,21.46s7.4,21.46,18.2,21.46c6.36,0,12.14-2.22,15.54-4,1.48-.74,2.37-1.18,3.4-1.18,1.78,0,2.52,1.33,2.52,3.55v6.51c0,2.37-.89,4-3.7,5.77Z"/>
      <path class="cls-2" d="M417.75,291.52c-20.72,0-34.63-13.32-34.63-37s13.91-37,34.63-37,34.48,13.32,34.48,37-13.91,37-34.48,37Zm0-58.46c-9.92,0-16.28,6.36-16.28,21.46s6.36,21.46,16.28,21.46,16.13-6.36,16.13-21.46-6.36-21.46-16.13-21.46Z"/>
      <path class="cls-2" d="M501.67,218.11c8.58,0,14.5,3.85,17.02,9.32,4-4,13.76-9.32,24.27-9.32,13.17,0,19.68,7.99,19.68,22.94v46.17c0,1.63-1.18,2.81-2.81,2.81h-12.73c-1.63,0-2.81-1.18-2.81-2.81v-43.51c0-6.36-3.26-9.03-8.44-9.03-6.36,0-14.5,3.55-14.5,3.55v48.99c0,1.63-1.18,2.81-2.81,2.81h-12.73c-1.63,0-2.81-1.18-2.81-2.81v-43.51c0-6.36-3.26-9.03-8.58-9.03-6.22,0-14.36,3.55-14.36,3.55v48.99c0,1.63-1.18,2.81-2.81,2.81h-12.73c-1.63,0-2.81-1.18-2.81-2.81v-65.41c0-1.63,1.18-2.81,2.81-2.81h7.25c5.03,0,8.14,3.55,8.14,7.4,3.7-2.81,11.25-8.29,21.75-8.29Z"/>
      <path class="cls-2" d="M610.96,217.97c17.46,0,29.16,12.58,29.16,36.55s-11.69,36.55-29.16,36.55c-10.36,0-16.43-4.74-19.39-8.73v36.85c0,1.63-1.18,2.81-2.81,2.81h-12.73c-1.63,0-2.81-1.18-2.81-2.81v-97.38c0-1.63,1.18-2.81,2.81-2.81h7.25c5.03,0,8.14,3.4,8.14,7.55,3.26-4.29,9.18-8.58,19.54-8.58Zm-4.29,15.09c-7.25,0-12.43,4.14-15.1,8.14v26.64c2.66,4,7.84,8.14,15.1,8.14,9.32,0,15.1-5.77,15.1-21.46s-5.77-21.46-15.1-21.46Z"/>
      <path class="cls-2" d="M668.83,290.93c-12.28,0-22.94-5.77-22.94-21.9,0-13.17,9.77-22.94,28.56-22.94,4.59,0,9.47,.59,13.17,1.33v-1.33c0-9.77-.74-14.36-10.51-14.36-7.99,0-13.76,1.92-19.68,4.44-1.63,.74-3.4,1.33-4.59,1.33-1.63,0-2.52-1.04-2.52-3.11v-6.51c0-2.66,1.33-4.29,4.74-5.92,5.77-2.81,16.72-4.44,25.01-4.44,19.83,0,25.46,8.58,25.46,24.86v34.04c0,3.4,1.04,4.74,3.26,4.74v1.78c0,3.7-2.07,7.99-10.66,7.99-5.92,0-9.47-2.37-10.51-7.25-3.4,3.7-8.73,7.25-18.79,7.25Zm18.79-33.89c-2.96-.74-6.36-1.18-9.32-1.18-10.06,0-14.5,4.29-14.5,12.14,0,8.58,4.74,11.1,11.54,11.1,5.33,0,9.92-2.66,12.28-5.33v-16.72Z"/>
      <path class="cls-2" d="M738.68,291.52c-10.8,0-18.06-3.26-21.46-5.33-2.81-1.63-3.7-3.26-3.7-5.62v-7.4c0-2.22,.89-3.26,2.52-3.26,1.04,0,1.92,.3,3.26,1.04,3.55,1.92,9.92,5.62,17.17,5.62,5.18,0,10.36-1.18,10.36-7.25,0-5.33-3.4-7.55-10.8-9.03-10.95-2.22-21.46-7.1-21.46-20.87s11.84-21.9,24.71-21.9c9.92,0,16.28,2.96,19.54,4.88,2.81,1.78,3.85,3.26,3.85,5.62v7.1c0,2.22-.89,3.26-2.66,3.26-1.04,0-1.92-.3-3.11-1.04-3.4-2.07-7.4-5.62-15.39-5.62-5.18,0-9.17,1.63-9.17,6.96,0,4.29,3.4,6.66,9.92,7.99,13.02,2.66,22.64,7.55,22.64,21.9,0,15.54-12.43,22.94-26.2,22.94Z"/>
      <path class="cls-2" d="M782.64,291.08c-5.62,0-10.21-4.59-10.21-10.21s4.59-10.06,10.21-10.06,10.06,4.44,10.06,10.06-4.44,10.21-10.06,10.21Z"/>
      <path class="cls-2" d="M802.77,322.89c-7.4,0-12.28-2.52-12.28-5.77v-7.25c0-1.48,.74-2.37,2.22-2.37,.59,0,1.18,.3,1.92,.59,1.48,.59,2.37,1.18,4.59,1.18,3.11,0,5.03-1.48,5.03-7.84v-79.62c0-1.63,1.18-2.81,2.81-2.81h12.73c1.63,0,2.81,1.18,2.81,2.81v78.73c0,15.24-7.25,22.35-19.83,22.35Zm1.18-124.32c0-5.18,4.29-9.47,9.47-9.47s9.47,4.29,9.47,9.47-4.29,9.47-9.47,9.47-9.47-4.29-9.47-9.47Z"/>
      <path class="cls-2" d="M856.79,291.52c-10.8,0-18.06-3.26-21.46-5.33-2.81-1.63-3.7-3.26-3.7-5.62v-7.4c0-2.22,.89-3.26,2.52-3.26,1.04,0,1.92,.3,3.26,1.04,3.55,1.92,9.92,5.62,17.17,5.62,5.18,0,10.36-1.18,10.36-7.25,0-5.33-3.4-7.55-10.8-9.03-10.95-2.22-21.46-7.1-21.46-20.87s11.84-21.9,24.71-21.9c9.92,0,16.28,2.96,19.54,4.88,2.81,1.78,3.85,3.26,3.85,5.62v7.1c0,2.22-.89,3.26-2.66,3.26-1.04,0-1.92-.3-3.11-1.04-3.4-2.07-7.4-5.62-15.39-5.62-5.18,0-9.17,1.63-9.17,6.96,0,4.29,3.4,6.66,9.92,7.99,13.02,2.66,22.64,7.55,22.64,21.9,0,15.54-12.43,22.94-26.2,22.94Z"/>
    </g>
  </g>
</svg>