<?xml version="1.0" encoding="UTF-8"?>
<svg id="Layer_2" data-name="Layer 2" xmlns="http://www.w3.org/2000/svg" viewBox="0 0 160 212">
  <defs>
    <style>
      .cls-1 {
        fill: #0b5351;
      }

      .cls-2 {
        fill: #3eaf7c;
      }
    </style>
  </defs>
  <g id="Layer_1-2" data-name="Layer 1">
    <g>
      <path class="cls-1" d="M101.85,106c.02,.39,.06,.77,.06,1.17,0,11.6-9.4,21-21,21s-21-9.4-21-21c0-.39,.04-.78,.06-1.17H30.91l50,106,50-106h-29.06Z"/>
      <path class="cls-2" d="M80.91,86.17c11.2,0,20.33,8.78,20.94,19.83h29.06L80.91,0,30.91,106h29.06c.61-11.05,9.74-19.83,20.94-19.83Z"/>
      <g>
        <path class="cls-1" d="M105.33,30.68l12.69,26.91c14.59,11.34,23.98,29.05,23.98,48.96s-9.74,38.29-24.8,49.6l-12.49,26.48c32.05-10.44,55.28-40.59,55.28-76.07s-22.94-65.25-54.67-75.87Z"/>
        <path class="cls-1" d="M45.52,158.07c-16.59-11.13-27.52-30.05-27.52-51.53s10.59-39.81,26.75-51l12.06-25.56C23.97,39.95,0,70.49,0,106.54s24.26,66.95,57.4,76.73l-11.89-25.2Z"/>
      </g>
    </g>
  </g>
</svg>