<?xml version="1.0" encoding="UTF-8" standalone="no"?>
<!DOCTYPE svg PUBLIC "-//W3C//DTD SVG 1.1//EN"
 "http://www.w3.org/Graphics/SVG/1.1/DTD/svg11.dtd">
<!-- Generated by graphviz version 3.0.0 (20220226.1711)
 -->
<!-- Title: compas Pages: 1 -->
<svg width="744pt" height="481pt"
 viewBox="0.00 0.00 743.50 481.00" xmlns="http://www.w3.org/2000/svg" xmlns:xlink="http://www.w3.org/1999/xlink">
<g id="graph0" class="graph" transform="scale(1 1) rotate(0) translate(4 477)">
<title>compas</title>
<polygon fill="white" stroke="transparent" points="-4,4 -4,-477 739.5,-477 739.5,4 -4,4"/>
<text text-anchor="middle" x="367.75" y="-22.8" font-family="Times,serif" font-size="14.00">Entity Relation Diagram generated by Compas.</text>
<text text-anchor="middle" x="367.75" y="-7.8" font-family="Times,serif" font-size="14.00">Hash: a0b7aca1</text>
<!-- file -->
<g id="node1" class="node">
<title>file</title>
<polygon fill="#b2dfee" stroke="transparent" points="0,-428 0,-452 154,-452 154,-428 0,-428"/>
<polygon fill="none" stroke="black" points="0,-428 0,-452 154,-452 154,-428 0,-428"/>
<text text-anchor="start" x="62.5" y="-436.2" font-family="Times,serif" font-weight="bold" font-size="16.00"> file </text>
<polygon fill="#b3b3b3" stroke="transparent" points="0,-407 0,-428 98,-428 98,-407 0,-407"/>
<polygon fill="none" stroke="black" points="0,-407 0,-428 98,-428 98,-407 0,-407"/>
<text text-anchor="start" x="3" y="-413.8" font-family="Times,serif" font-weight="bold" font-size="14.00"> id </text>
<polygon fill="none" stroke="black" points="98,-407 98,-428 154,-428 154,-407 98,-407"/>
<text text-anchor="start" x="101" y="-413.8" font-family="Times,serif" font-size="14.00" fill="#535353"> uuid </text>
<polygon fill="#ebebeb" stroke="transparent" points="0,-386 0,-407 98,-407 98,-386 0,-386"/>
<polygon fill="none" stroke="black" points="0,-386 0,-407 98,-407 98,-386 0,-386"/>
<text text-anchor="start" x="3" y="-392.8" font-family="Times,serif" font-weight="bold" font-size="14.00"> contentLength </text>
<polygon fill="none" stroke="black" points="98,-386 98,-407 154,-407 154,-386 98,-386"/>
<text text-anchor="start" x="101" y="-392.8" font-family="Times,serif" font-size="14.00" fill="#535353"> number </text>
<polygon fill="#ebebeb" stroke="transparent" points="0,-365 0,-386 98,-386 98,-365 0,-365"/>
<polygon fill="none" stroke="black" points="0,-365 0,-386 98,-386 98,-365 0,-365"/>
<text text-anchor="start" x="3" y="-371.8" font-family="Times,serif" font-weight="bold" font-size="14.00"> bucketName </text>
<polygon fill="none" stroke="black" points="98,-365 98,-386 154,-386 154,-365 98,-365"/>
<text text-anchor="start" x="101" y="-371.8" font-family="Times,serif" font-size="14.00" fill="#535353"> string </text>
<polygon fill="#ebebeb" stroke="transparent" points="0,-344 0,-365 98,-365 98,-344 0,-344"/>
<polygon fill="none" stroke="black" points="0,-344 0,-365 98,-365 98,-344 0,-344"/>
<text text-anchor="start" x="3" y="-350.8" font-family="Times,serif" font-weight="bold" font-size="14.00"> contentType </text>
<polygon fill="none" stroke="black" points="98,-344 98,-365 154,-365 154,-344 98,-344"/>
<text text-anchor="start" x="101" y="-350.8" font-family="Times,serif" font-size="14.00" fill="#535353"> string </text>
<polygon fill="#ebebeb" stroke="transparent" points="0,-323 0,-344 98,-344 98,-323 0,-323"/>
<polygon fill="none" stroke="black" points="0,-323 0,-344 98,-344 98,-323 0,-323"/>
<text text-anchor="start" x="3" y="-329.8" font-family="Times,serif" font-weight="bold" font-size="14.00"> name </text>
<polygon fill="none" stroke="black" points="98,-323 98,-344 154,-344 154,-323 98,-323"/>
<text text-anchor="start" x="101" y="-329.8" font-family="Times,serif" font-size="14.00" fill="#535353"> string </text>
<polygon fill="#ebebeb" stroke="transparent" points="0,-302 0,-323 98,-323 98,-302 0,-302"/>
<polygon fill="none" stroke="black" points="0,-302 0,-323 98,-323 98,-302 0,-302"/>
<text text-anchor="start" x="3" y="-308.8" font-family="Times,serif" font-weight="bold" font-size="14.00"> meta </text>
<polygon fill="none" stroke="black" points="98,-302 98,-323 154,-323 154,-302 98,-302"/>
<text text-anchor="start" x="101" y="-308.8" font-family="Times,serif" font-size="14.00" fill="#535353"> object </text>
<polygon fill="#f5f5f5" stroke="transparent" points="0,-281 0,-302 98,-302 98,-281 0,-281"/>
<polygon fill="none" stroke="black" points="0,-281 0,-302 98,-302 98,-281 0,-281"/>
<text text-anchor="start" x="3" y="-287.8" font-family="Times,serif" font-weight="bold" font-size="14.00"> createdAt </text>
<polygon fill="none" stroke="black" points="98,-281 98,-302 154,-302 154,-281 98,-281"/>
<text text-anchor="start" x="101" y="-287.8" font-family="Times,serif" font-size="14.00" fill="#535353"> date </text>
<polygon fill="#f5f5f5" stroke="transparent" points="0,-260 0,-281 98,-281 98,-260 0,-260"/>
<polygon fill="none" stroke="black" points="0,-260 0,-281 98,-281 98,-260 0,-260"/>
<text text-anchor="start" x="3" y="-266.8" font-family="Times,serif" font-weight="bold" font-size="14.00"> updatedAt </text>
<polygon fill="none" stroke="black" points="98,-260 98,-281 154,-281 154,-260 98,-260"/>
<text text-anchor="start" x="101" y="-266.8" font-family="Times,serif" font-size="14.00" fill="#535353"> date </text>
</g>
<!-- sessionStore -->
<g id="node2" class="node">
<title>sessionStore</title>
<polygon fill="#b2dfee" stroke="transparent" points="283,-164 283,-188 404,-188 404,-164 283,-164"/>
<polygon fill="none" stroke="black" points="283,-164 283,-188 404,-188 404,-164 283,-164"/>
<text text-anchor="start" x="298" y="-172.2" font-family="Times,serif" font-weight="bold" font-size="16.00"> sessionStore </text>
<polygon fill="#b3b3b3" stroke="transparent" points="283,-143 283,-164 359,-164 359,-143 283,-143"/>
<polygon fill="none" stroke="black" points="283,-143 283,-164 359,-164 359,-143 283,-143"/>
<text text-anchor="start" x="286" y="-149.8" font-family="Times,serif" font-weight="bold" font-size="14.00"> id </text>
<polygon fill="none" stroke="black" points="359,-143 359,-164 404,-164 404,-143 359,-143"/>
<text text-anchor="start" x="362" y="-149.8" font-family="Times,serif" font-size="14.00" fill="#535353"> uuid </text>
<polygon fill="#ebebeb" stroke="transparent" points="283,-122 283,-143 359,-143 359,-122 283,-122"/>
<polygon fill="none" stroke="black" points="283,-122 283,-143 359,-143 359,-122 283,-122"/>
<text text-anchor="start" x="286" y="-128.8" font-family="Times,serif" font-weight="bold" font-size="14.00"> checksum </text>
<polygon fill="none" stroke="black" points="359,-122 359,-143 404,-143 404,-122 359,-122"/>
<text text-anchor="start" x="362" y="-128.8" font-family="Times,serif" font-size="14.00" fill="#535353"> string </text>
<polygon fill="#ebebeb" stroke="transparent" points="283,-101 283,-122 359,-122 359,-101 283,-101"/>
<polygon fill="none" stroke="black" points="283,-101 283,-122 359,-122 359,-101 283,-101"/>
<text text-anchor="start" x="286" y="-107.8" font-family="Times,serif" font-weight="bold" font-size="14.00"> revokedAt </text>
<polygon fill="none" stroke="black" points="359,-101 359,-122 404,-122 404,-101 359,-101"/>
<text text-anchor="start" x="362" y="-107.8" font-family="Times,serif" font-size="14.00" fill="#535353"> ?date </text>
<polygon fill="#ebebeb" stroke="transparent" points="283,-80 283,-101 359,-101 359,-80 283,-80"/>
<polygon fill="none" stroke="black" points="283,-80 283,-101 359,-101 359,-80 283,-80"/>
<text text-anchor="start" x="286" y="-86.8" font-family="Times,serif" font-weight="bold" font-size="14.00"> data </text>
<polygon fill="none" stroke="black" points="359,-80 359,-101 404,-101 404,-80 359,-80"/>
<text text-anchor="start" x="362" y="-86.8" font-family="Times,serif" font-size="14.00" fill="#535353"> any </text>
<polygon fill="#f5f5f5" stroke="transparent" points="283,-59 283,-80 359,-80 359,-59 283,-59"/>
<polygon fill="none" stroke="black" points="283,-59 283,-80 359,-80 359,-59 283,-59"/>
<text text-anchor="start" x="286" y="-65.8" font-family="Times,serif" font-weight="bold" font-size="14.00"> createdAt </text>
<polygon fill="none" stroke="black" points="359,-59 359,-80 404,-80 404,-59 359,-59"/>
<text text-anchor="start" x="362" y="-65.8" font-family="Times,serif" font-size="14.00" fill="#535353"> date </text>
<polygon fill="#f5f5f5" stroke="transparent" points="283,-38 283,-59 359,-59 359,-38 283,-38"/>
<polygon fill="none" stroke="black" points="283,-38 283,-59 359,-59 359,-38 283,-38"/>
<text text-anchor="start" x="286" y="-44.8" font-family="Times,serif" font-weight="bold" font-size="14.00"> updatedAt </text>
<polygon fill="none" stroke="black" points="359,-38 359,-59 404,-59 404,-38 359,-38"/>
<text text-anchor="start" x="362" y="-44.8" font-family="Times,serif" font-size="14.00" fill="#535353"> date </text>
</g>
<!-- sessionStoreToken -->
<g id="node3" class="node">
<title>sessionStoreToken</title>
<polygon fill="#b2dfee" stroke="transparent" points="205,-407 205,-431 344,-431 344,-407 205,-407"/>
<polygon fill="none" stroke="black" points="205,-407 205,-431 344,-431 344,-407 205,-407"/>
<text text-anchor="start" x="208" y="-415.2" font-family="Times,serif" font-weight="bold" font-size="16.00"> sessionStoreToken </text>
<polygon fill="#b3b3b3" stroke="transparent" points="205,-386 205,-407 298,-407 298,-386 205,-386"/>
<polygon fill="none" stroke="black" points="205,-386 205,-407 298,-407 298,-386 205,-386"/>
<text text-anchor="start" x="208" y="-392.8" font-family="Times,serif" font-weight="bold" font-size="14.00"> id </text>
<polygon fill="none" stroke="black" points="298,-386 298,-407 344,-407 344,-386 298,-386"/>
<text text-anchor="start" x="301" y="-392.8" font-family="Times,serif" font-size="14.00" fill="#535353"> uuid </text>
<polygon fill="#ebebeb" stroke="transparent" points="205,-365 205,-386 298,-386 298,-365 205,-365"/>
<polygon fill="none" stroke="black" points="205,-365 205,-386 298,-386 298,-365 205,-365"/>
<text text-anchor="start" x="208" y="-371.8" font-family="Times,serif" font-weight="bold" font-size="14.00"> session </text>
<polygon fill="none" stroke="black" points="298,-365 298,-386 344,-386 344,-365 298,-365"/>
<text text-anchor="start" x="301" y="-371.8" font-family="Times,serif" font-size="14.00" fill="#535353"> uuid </text>
<polygon fill="#ebebeb" stroke="transparent" points="205,-344 205,-365 298,-365 298,-344 205,-344"/>
<polygon fill="none" stroke="black" points="205,-344 205,-365 298,-365 298,-344 205,-344"/>
<text text-anchor="start" x="208" y="-350.8" font-family="Times,serif" font-weight="bold" font-size="14.00"> expiresAt </text>
<polygon fill="none" stroke="black" points="298,-344 298,-365 344,-365 344,-344 298,-344"/>
<text text-anchor="start" x="301" y="-350.8" font-family="Times,serif" font-size="14.00" fill="#535353"> date </text>
<polygon fill="#ebebeb" stroke="transparent" points="205,-323 205,-344 298,-344 298,-323 205,-323"/>
<polygon fill="none" stroke="black" points="205,-323 205,-344 298,-344 298,-323 205,-323"/>
<text text-anchor="start" x="208" y="-329.8" font-family="Times,serif" font-weight="bold" font-size="14.00"> refreshToken </text>
<polygon fill="none" stroke="black" points="298,-323 298,-344 344,-344 344,-323 298,-323"/>
<text text-anchor="start" x="301" y="-329.8" font-family="Times,serif" font-size="14.00" fill="#535353"> ?uuid </text>
<polygon fill="#ebebeb" stroke="transparent" points="205,-302 205,-323 298,-323 298,-302 205,-302"/>
<polygon fill="none" stroke="black" points="205,-302 205,-323 298,-323 298,-302 205,-302"/>
<text text-anchor="start" x="208" y="-308.8" font-family="Times,serif" font-weight="bold" font-size="14.00"> revokedAt </text>
<polygon fill="none" stroke="black" points="298,-302 298,-323 344,-323 344,-302 298,-302"/>
<text text-anchor="start" x="301" y="-308.8" font-family="Times,serif" font-size="14.00" fill="#535353"> ?date </text>
<polygon fill="#f5f5f5" stroke="transparent" points="205,-281 205,-302 298,-302 298,-281 205,-281"/>
<polygon fill="none" stroke="black" points="205,-281 205,-302 298,-302 298,-281 205,-281"/>
<text text-anchor="start" x="208" y="-287.8" font-family="Times,serif" font-weight="bold" font-size="14.00"> createdAt </text>
<polygon fill="none" stroke="black" points="298,-281 298,-302 344,-302 344,-281 298,-281"/>
<text text-anchor="start" x="301" y="-287.8" font-family="Times,serif" font-size="14.00" fill="#535353"> date </text>
</g>
<!-- sessionStoreToken&#45;&gt;sessionStore -->
<g id="edge1" class="edge">
<title>sessionStoreToken:1_right&#45;&gt;sessionStore:0</title>
<path fill="none" stroke="black" d="M345,-376C387.22,-376 356.3,-321.39 344,-281 326.92,-224.9 232.95,-162.86 271.65,-154.86"/>
<polygon fill="black" stroke="black" points="272.33,-158.32 282,-154 271.74,-151.34 272.33,-158.32"/>
<text text-anchor="middle" x="318.5" y="-209.8" font-family="Times,serif" font-size="14.00">N &#45; 1</text>
</g>
<!-- sessionStoreToken&#45;&gt;sessionStoreToken -->
<g id="edge2" class="edge">
<title>sessionStoreToken:3&#45;&gt;sessionStoreToken:0</title>
<path fill="none" stroke="black" d="M237.92,-322.99C199.84,-298.25 154.5,-304.62 154.5,-365 154.5,-420.66 193.04,-430.42 228.89,-412.23"/>
<polygon fill="black" stroke="black" points="231.01,-415.04 237.92,-407.01 227.51,-408.98 231.01,-415.04"/>
<text text-anchor="middle" x="141.5" y="-352.3" font-family="Times,serif" font-size="14.00">1 &#45; 1</text>
</g>
<!-- job -->
<g id="node4" class="node">
<title>job</title>
<polygon fill="#b2dfee" stroke="transparent" points="394,-449 394,-473 565,-473 565,-449 394,-449"/>
<polygon fill="none" stroke="black" points="394,-449 394,-473 565,-473 565,-449 394,-449"/>
<text text-anchor="start" x="464" y="-457.2" font-family="Times,serif" font-weight="bold" font-size="16.00"> job </text>
<polygon fill="#b3b3b3" stroke="transparent" points="394,-428 394,-449 503,-449 503,-428 394,-428"/>
<polygon fill="none" stroke="black" points="394,-428 394,-449 503,-449 503,-428 394,-428"/>
<text text-anchor="start" x="397" y="-434.8" font-family="Times,serif" font-weight="bold" font-size="14.00"> id </text>
<polygon fill="none" stroke="black" points="503,-428 503,-449 565,-449 565,-428 503,-428"/>
<text text-anchor="start" x="506" y="-434.8" font-family="Times,serif" font-size="14.00" fill="#535353"> number </text>
<polygon fill="#ebebeb" stroke="transparent" points="394,-407 394,-428 503,-428 503,-407 394,-407"/>
<polygon fill="none" stroke="black" points="394,-407 394,-428 503,-428 503,-407 394,-407"/>
<text text-anchor="start" x="397" y="-413.8" font-family="Times,serif" font-weight="bold" font-size="14.00"> isComplete </text>
<polygon fill="none" stroke="black" points="503,-407 503,-428 565,-428 565,-407 503,-407"/>
<text text-anchor="start" x="506" y="-413.8" font-family="Times,serif" font-size="14.00" fill="#535353"> boolean </text>
<polygon fill="#ebebeb" stroke="transparent" points="394,-386 394,-407 503,-407 503,-386 394,-386"/>
<polygon fill="none" stroke="black" points="394,-386 394,-407 503,-407 503,-386 394,-386"/>
<text text-anchor="start" x="397" y="-392.8" font-family="Times,serif" font-weight="bold" font-size="14.00"> handlerTimeout </text>
<polygon fill="none" stroke="black" points="503,-386 503,-407 565,-407 565,-386 503,-386"/>
<text text-anchor="start" x="506" y="-392.8" font-family="Times,serif" font-size="14.00" fill="#535353"> ?number </text>
<polygon fill="#ebebeb" stroke="transparent" points="394,-365 394,-386 503,-386 503,-365 394,-365"/>
<polygon fill="none" stroke="black" points="394,-365 394,-386 503,-386 503,-365 394,-365"/>
<text text-anchor="start" x="397" y="-371.8" font-family="Times,serif" font-weight="bold" font-size="14.00"> priority </text>
<polygon fill="none" stroke="black" points="503,-365 503,-386 565,-386 565,-365 503,-365"/>
<text text-anchor="start" x="506" y="-371.8" font-family="Times,serif" font-size="14.00" fill="#535353"> number </text>
<polygon fill="#ebebeb" stroke="transparent" points="394,-344 394,-365 503,-365 503,-344 394,-344"/>
<polygon fill="none" stroke="black" points="394,-344 394,-365 503,-365 503,-344 394,-344"/>
<text text-anchor="start" x="397" y="-350.8" font-family="Times,serif" font-weight="bold" font-size="14.00"> retryCount </text>
<polygon fill="none" stroke="black" points="503,-344 503,-365 565,-365 565,-344 503,-344"/>
<text text-anchor="start" x="506" y="-350.8" font-family="Times,serif" font-size="14.00" fill="#535353"> number </text>
<polygon fill="#ebebeb" stroke="transparent" points="394,-323 394,-344 503,-344 503,-323 394,-323"/>
<polygon fill="none" stroke="black" points="394,-323 394,-344 503,-344 503,-323 394,-323"/>
<text text-anchor="start" x="397" y="-329.8" font-family="Times,serif" font-weight="bold" font-size="14.00"> name </text>
<polygon fill="none" stroke="black" points="503,-323 503,-344 565,-344 565,-323 503,-323"/>
<text text-anchor="start" x="506" y="-329.8" font-family="Times,serif" font-size="14.00" fill="#535353"> string </text>
<polygon fill="#ebebeb" stroke="transparent" points="394,-302 394,-323 503,-323 503,-302 394,-302"/>
<polygon fill="none" stroke="black" points="394,-302 394,-323 503,-323 503,-302 394,-302"/>
<text text-anchor="start" x="397" y="-308.8" font-family="Times,serif" font-weight="bold" font-size="14.00"> scheduledAt </text>
<polygon fill="none" stroke="black" points="503,-302 503,-323 565,-323 565,-302 503,-302"/>
<text text-anchor="start" x="506" y="-308.8" font-family="Times,serif" font-size="14.00" fill="#535353"> date </text>
<polygon fill="#ebebeb" stroke="transparent" points="394,-281 394,-302 503,-302 503,-281 394,-281"/>
<polygon fill="none" stroke="black" points="394,-281 394,-302 503,-302 503,-281 394,-281"/>
<text text-anchor="start" x="397" y="-287.8" font-family="Times,serif" font-weight="bold" font-size="14.00"> data </text>
<polygon fill="none" stroke="black" points="503,-281 503,-302 565,-302 565,-281 503,-281"/>
<text text-anchor="start" x="506" y="-287.8" font-family="Times,serif" font-size="14.00" fill="#535353"> any </text>
<polygon fill="#f5f5f5" stroke="transparent" points="394,-260 394,-281 503,-281 503,-260 394,-260"/>
<polygon fill="none" stroke="black" points="394,-260 394,-281 503,-281 503,-260 394,-260"/>
<text text-anchor="start" x="397" y="-266.8" font-family="Times,serif" font-weight="bold" font-size="14.00"> createdAt </text>
<polygon fill="none" stroke="black" points="503,-260 503,-281 565,-281 565,-260 503,-260"/>
<text text-anchor="start" x="506" y="-266.8" font-family="Times,serif" font-size="14.00" fill="#535353"> date </text>
<polygon fill="#f5f5f5" stroke="transparent" points="394,-239 394,-260 503,-260 503,-239 394,-239"/>
<polygon fill="none" stroke="black" points="394,-239 394,-260 503,-260 503,-239 394,-239"/>
<text text-anchor="start" x="397" y="-245.8" font-family="Times,serif" font-weight="bold" font-size="14.00"> updatedAt </text>
<polygon fill="none" stroke="black" points="503,-239 503,-260 565,-260 565,-239 503,-239"/>
<text text-anchor="start" x="506" y="-245.8" font-family="Times,serif" font-size="14.00" fill="#535353"> date </text>
</g>
<!-- user -->
<g id="node5" class="node">
<title>user</title>
<polygon fill="#b2dfee" stroke="transparent" points="615,-396 615,-420 736,-420 736,-396 615,-396"/>
<polygon fill="none" stroke="black" points="615,-396 615,-420 736,-420 736,-396 615,-396"/>
<text text-anchor="start" x="657" y="-404.2" font-family="Times,serif" font-weight="bold" font-size="16.00"> user </text>
<polygon fill="#b3b3b3" stroke="transparent" points="615,-375 615,-396 691,-396 691,-375 615,-375"/>
<polygon fill="none" stroke="black" points="615,-375 615,-396 691,-396 691,-375 615,-375"/>
<text text-anchor="start" x="618" y="-381.8" font-family="Times,serif" font-weight="bold" font-size="14.00"> id </text>
<polygon fill="none" stroke="black" points="691,-375 691,-396 736,-396 736,-375 691,-375"/>
<text text-anchor="start" x="694" y="-381.8" font-family="Times,serif" font-size="14.00" fill="#535353"> uuid </text>
<polygon fill="#ebebeb" stroke="transparent" points="615,-354 615,-375 691,-375 691,-354 615,-354"/>
<polygon fill="none" stroke="black" points="615,-354 615,-375 691,-375 691,-354 615,-354"/>
<text text-anchor="start" x="618" y="-360.8" font-family="Times,serif" font-weight="bold" font-size="14.00"> email </text>
<polygon fill="none" stroke="black" points="691,-354 691,-375 736,-375 736,-354 691,-354"/>
<text text-anchor="start" x="694" y="-360.8" font-family="Times,serif" font-size="14.00" fill="#535353"> string </text>
<polygon fill="#ebebeb" stroke="transparent" points="615,-333 615,-354 691,-354 691,-333 615,-333"/>
<polygon fill="none" stroke="black" points="615,-333 615,-354 691,-354 691,-333 615,-333"/>
<text text-anchor="start" x="618" y="-339.8" font-family="Times,serif" font-weight="bold" font-size="14.00"> password </text>
<polygon fill="none" stroke="black" points="691,-333 691,-354 736,-354 736,-333 691,-333"/>
<text text-anchor="start" x="694" y="-339.8" font-family="Times,serif" font-size="14.00" fill="#535353"> string </text>
<polygon fill="#f5f5f5" stroke="transparent" points="615,-312 615,-333 691,-333 691,-312 615,-312"/>
<polygon fill="none" stroke="black" points="615,-312 615,-333 691,-333 691,-312 615,-312"/>
<text text-anchor="start" x="618" y="-318.8" font-family="Times,serif" font-weight="bold" font-size="14.00"> createdAt </text>
<polygon fill="none" stroke="black" points="691,-312 691,-333 736,-333 736,-312 691,-312"/>
<text text-anchor="start" x="694" y="-318.8" font-family="Times,serif" font-size="14.00" fill="#535353"> date </text>
<polygon fill="#f5f5f5" stroke="transparent" points="615,-291 615,-312 691,-312 691,-291 615,-291"/>
<polygon fill="none" stroke="black" points="615,-291 615,-312 691,-312 691,-291 615,-291"/>
<text text-anchor="start" x="618" y="-297.8" font-family="Times,serif" font-weight="bold" font-size="14.00"> updatedAt </text>
<polygon fill="none" stroke="black" points="691,-291 691,-312 736,-312 736,-291 691,-291"/>
<text text-anchor="start" x="694" y="-297.8" font-family="Times,serif" font-size="14.00" fill="#535353"> date </text>
</g>
</g>
</svg>
