<?xml version="1.0" encoding="UTF-8"?>
<svg id="b" data-name="Layer 2" xmlns="http://www.w3.org/2000/svg" viewBox="0 0 343.68 117.28">
  <defs>
    <style>
      .d {
        fill: #fff;
      }

      .e {
        fill: #0b5351;
      }

      .f {
        fill: #3eaf7c;
      }
    </style>
  </defs>
  <g id="c" data-name="b">
    <rect class="d" width="343.68" height="117.28" rx="3" ry="3"/>
    <g>
      <g>
        <g>
          <path class="e" d="M73.41,58.64c0,4.07-3.3,7.37-7.37,7.37s-7.37-3.3-7.37-7.37h-10.84l18.21,38.53,18.21-38.53h-10.84Z"/>
          <path class="f" d="M66.04,20.11l-18.21,38.53h10.84c0-4.07,3.3-7.37,7.37-7.37s7.37,3.3,7.37,7.37h10.84l-18.21-38.53Z"/>
        </g>
        <g>
          <path class="e" d="M74.34,30.65l4.42,9.34c1.15,.79,2.23,1.68,3.24,2.69,4.26,4.26,6.61,9.93,6.61,15.96s-2.35,11.7-6.61,15.96c-1.01,1.01-2.09,1.9-3.24,2.69l-4.42,9.34c12.08-3.58,20.89-14.76,20.89-27.99s-8.81-24.42-20.89-27.99Z"/>
          <path class="e" d="M53.31,77.29c-1.15-.79-2.23-1.68-3.24-2.69-4.26-4.26-6.61-9.93-6.61-15.96s2.35-11.7,6.61-15.96c1.01-1.01,2.09-1.9,3.24-2.69l4.42-9.34c-12.08,3.58-20.89,14.76-20.89,27.99s8.81,24.42,20.89,27.99l-4.42-9.34Z"/>
        </g>
      </g>
      <g>
        <path class="e" d="M122.18,69.76c-1.13,.7-3.71,1.77-7.25,1.77-7.84,0-12.46-5-12.46-13.43s4.62-13.43,12.46-13.43c3.55,0,6.12,1.02,7.25,1.77,1.02,.7,1.34,1.24,1.34,2.09v2.36c0,.81-.27,1.29-.91,1.29-.38,0-.7-.16-1.24-.43-1.24-.64-3.33-1.45-5.64-1.45-3.92,0-6.61,2.31-6.61,7.79s2.69,7.79,6.61,7.79c2.31,0,4.41-.81,5.64-1.45,.54-.27,.86-.43,1.24-.43,.64,0,.91,.48,.91,1.29v2.36c0,.86-.32,1.45-1.34,2.09Z"/>
        <path class="e" d="M137.97,71.53c-7.52,0-12.57-4.83-12.57-13.43s5.05-13.43,12.57-13.43,12.52,4.83,12.52,13.43-5.05,13.43-12.52,13.43Zm0-21.22c-3.6,0-5.91,2.31-5.91,7.79s2.31,7.79,5.91,7.79,5.86-2.31,5.86-7.79-2.31-7.79-5.86-7.79Z"/>
        <path class="e" d="M168.43,44.89c3.12,0,5.26,1.4,6.18,3.38,1.45-1.45,5-3.38,8.81-3.38,4.78,0,7.14,2.9,7.14,8.33v16.76c0,.59-.43,1.02-1.02,1.02h-4.62c-.59,0-1.02-.43-1.02-1.02v-15.79c0-2.31-1.18-3.28-3.06-3.28-2.31,0-5.26,1.29-5.26,1.29v17.78c0,.59-.43,1.02-1.02,1.02h-4.62c-.59,0-1.02-.43-1.02-1.02v-15.79c0-2.31-1.18-3.28-3.12-3.28-2.26,0-5.21,1.29-5.21,1.29v17.78c0,.59-.43,1.02-1.02,1.02h-4.62c-.59,0-1.02-.43-1.02-1.02v-23.74c0-.59,.43-1.02,1.02-1.02h2.63c1.83,0,2.95,1.29,2.95,2.69,1.34-1.02,4.08-3.01,7.9-3.01Z"/>
        <path class="e" d="M208.1,44.83c6.34,0,10.58,4.57,10.58,13.27s-4.24,13.27-10.58,13.27c-3.76,0-5.96-1.72-7.04-3.17v13.38c0,.59-.43,1.02-1.02,1.02h-4.62c-.59,0-1.02-.43-1.02-1.02V46.23c0-.59,.43-1.02,1.02-1.02h2.63c1.83,0,2.95,1.24,2.95,2.74,1.18-1.56,3.33-3.12,7.09-3.12Zm-1.56,5.48c-2.63,0-4.51,1.5-5.48,2.95v9.67c.97,1.45,2.85,2.95,5.48,2.95,3.38,0,5.48-2.09,5.48-7.79s-2.1-7.79-5.48-7.79Z"/>
        <path class="e" d="M229.11,71.32c-4.46,0-8.33-2.09-8.33-7.95,0-4.78,3.55-8.33,10.37-8.33,1.67,0,3.44,.21,4.78,.48v-.48c0-3.55-.27-5.21-3.81-5.21-2.9,0-5,.7-7.14,1.61-.59,.27-1.24,.48-1.67,.48-.59,0-.91-.38-.91-1.13v-2.36c0-.97,.48-1.56,1.72-2.15,2.09-1.02,6.07-1.61,9.08-1.61,7.2,0,9.24,3.12,9.24,9.02v12.36c0,1.24,.38,1.72,1.18,1.72v.64c0,1.34-.75,2.9-3.87,2.9-2.15,0-3.44-.86-3.81-2.63-1.24,1.34-3.17,2.63-6.82,2.63Zm6.82-12.3c-1.07-.27-2.31-.43-3.38-.43-3.65,0-5.26,1.56-5.26,4.41,0,3.12,1.72,4.03,4.19,4.03,1.93,0,3.6-.97,4.46-1.93v-6.07Z"/>
        <path class="e" d="M254.46,71.53c-3.92,0-6.55-1.18-7.79-1.93-1.02-.59-1.34-1.18-1.34-2.04v-2.69c0-.81,.32-1.18,.91-1.18,.38,0,.7,.11,1.18,.38,1.29,.7,3.6,2.04,6.23,2.04,1.88,0,3.76-.43,3.76-2.63,0-1.93-1.24-2.74-3.92-3.28-3.98-.81-7.79-2.58-7.79-7.57s4.3-7.95,8.97-7.95c3.6,0,5.91,1.07,7.09,1.77,1.02,.64,1.4,1.18,1.4,2.04v2.58c0,.81-.32,1.18-.97,1.18-.38,0-.7-.11-1.13-.38-1.24-.75-2.69-2.04-5.59-2.04-1.88,0-3.33,.59-3.33,2.52,0,1.56,1.24,2.42,3.6,2.9,4.73,.97,8.22,2.74,8.22,7.95,0,5.64-4.51,8.33-9.51,8.33Z"/>
        <path class="e" d="M270.42,71.37c-2.04,0-3.71-1.67-3.71-3.71s1.67-3.65,3.71-3.65,3.65,1.61,3.65,3.65-1.61,3.71-3.65,3.71Z"/>
        <path class="e" d="M277.72,82.92c-2.69,0-4.46-.91-4.46-2.09v-2.63c0-.54,.27-.86,.81-.86,.21,0,.43,.11,.7,.21,.54,.21,.86,.43,1.67,.43,1.13,0,1.83-.54,1.83-2.85v-28.9c0-.59,.43-1.02,1.02-1.02h4.62c.59,0,1.02,.43,1.02,1.02v28.58c0,5.53-2.63,8.11-7.2,8.11Zm.43-45.12c0-1.88,1.56-3.44,3.44-3.44s3.44,1.56,3.44,3.44-1.56,3.44-3.44,3.44-3.44-1.56-3.44-3.44Z"/>
        <path class="e" d="M297.33,71.53c-3.92,0-6.55-1.18-7.79-1.93-1.02-.59-1.34-1.18-1.34-2.04v-2.69c0-.81,.32-1.18,.91-1.18,.38,0,.7,.11,1.18,.38,1.29,.7,3.6,2.04,6.23,2.04,1.88,0,3.76-.43,3.76-2.63,0-1.93-1.24-2.74-3.92-3.28-3.98-.81-7.79-2.58-7.79-7.57s4.3-7.95,8.97-7.95c3.6,0,5.91,1.07,7.09,1.77,1.02,.64,1.4,1.18,1.4,2.04v2.58c0,.81-.32,1.18-.97,1.18-.38,0-.7-.11-1.13-.38-1.24-.75-2.69-2.04-5.59-2.04-1.88,0-3.33,.59-3.33,2.52,0,1.56,1.24,2.42,3.6,2.9,4.73,.97,8.22,2.74,8.22,7.95,0,5.64-4.51,8.33-9.51,8.33Z"/>
      </g>
    </g>
  </g>
</svg>