<?xml version="1.0" encoding="UTF-8"?>
<svg id="b" data-name="Layer 2" xmlns="http://www.w3.org/2000/svg" viewBox="0 0 732.55 966.67">
  <defs>
    <style>
      .d {
        fill: #0b5351;
      }

      .e {
        fill: #3eaf7c;
      }
    </style>
  </defs>
  <g id="c" data-name="Layer 1">
    <g>
      <g>
        <path class="d" d="M458.79,483.33c0,51.09-41.42,92.51-92.51,92.51s-92.51-41.42-92.51-92.51H137.83l228.45,483.33,228.45-483.33h-135.94Z"/>
        <path class="e" d="M366.28,0L137.83,483.33h135.94c0-51.09,41.42-92.51,92.51-92.51s92.51,41.42,92.51,92.51h135.94L366.28,0Z"/>
      </g>
      <g>
        <path class="d" d="M470.49,132.13l55.39,117.19c14.41,9.87,28.03,21.14,40.65,33.76,53.49,53.49,82.95,124.61,82.95,200.25s-29.46,146.76-82.95,200.25c-12.62,12.62-26.23,23.89-40.65,33.76l-55.39,117.19c151.52-44.89,262.06-185.13,262.06-351.21s-110.55-306.32-262.06-351.21Z"/>
        <path class="d" d="M206.67,717.35c-14.41-9.87-28.03-21.14-40.65-33.76-53.49-53.49-82.95-124.61-82.95-200.25s29.46-146.76,82.95-200.25c12.62-12.62,26.24-23.89,40.65-33.76l55.39-117.19C110.55,177.02,0,317.25,0,483.33s110.55,306.32,262.06,351.21l-55.39-117.19Z"/>
      </g>
    </g>
  </g>
</svg>